<svg xmlns="http://www.w3.org/2000/svg" xmlns:xlink="http://www.w3.org/1999/xlink" width="500" zoomAndPan="magnify" viewBox="0 0 375 374.999991" height="500" preserveAspectRatio="xMidYMid meet" version="1.0"><defs><g/><clipPath id="620c8d7e6f"><path d="M 22.4375 84.875 L 357.6875 84.875 L 357.6875 280.625 L 22.4375 280.625 Z M 22.4375 84.875 " clip-rule="nonzero"/></clipPath><clipPath id="874e4049e5"><path d="M 66 35 L 306 35 L 306 342 L 66 342 Z M 66 35 " clip-rule="nonzero"/></clipPath><clipPath id="6b0174da71"><path d="M 354.617188 284.597656 L 185.21875 382.683594 L 17.226562 92.558594 L 186.628906 -5.527344 Z M 354.617188 284.597656 " clip-rule="nonzero"/></clipPath><clipPath id="a474dde79c"><path d="M 354.617188 284.597656 L 185.21875 382.683594 L 17.226562 92.558594 L 186.628906 -5.527344 Z M 354.617188 284.597656 " clip-rule="nonzero"/></clipPath><clipPath id="b4333696f8"><path d="M 70 32 L 309 32 L 309 340 L 70 340 Z M 70 32 " clip-rule="nonzero"/></clipPath><clipPath id="e64c787148"><path d="M 191.089844 380.480469 L 21.226562 283.195312 L 187.839844 -7.722656 L 357.703125 89.5625 Z M 191.089844 380.480469 " clip-rule="nonzero"/></clipPath><clipPath id="89e5a1ff99"><path d="M 191.089844 380.480469 L 21.226562 283.195312 L 187.839844 -7.722656 L 357.703125 89.5625 Z M 191.089844 380.480469 " clip-rule="nonzero"/></clipPath></defs><rect x="-37.5" width="450" fill="#ffffff" y="-37.499999" height="449.999989" fill-opacity="1"/><rect x="-37.5" width="450" fill="#09090b" y="-37.499999" height="449.999989" fill-opacity="1"/><g clip-path="url(#620c8d7e6f)"><path fill="#ffffff" d="M 22.472656 182.714844 C 22.472656 156.378906 40.078125 131.6875 71.996094 113.226562 C 103.558594 94.976562 145.496094 84.957031 190.082031 84.957031 C 234.667969 84.957031 276.605469 94.976562 308.164062 113.226562 C 340.082031 131.6875 357.6875 156.378906 357.6875 182.714844 C 357.6875 209.050781 340.082031 233.742188 308.164062 252.207031 C 276.605469 270.457031 234.667969 280.476562 190.082031 280.476562 C 145.496094 280.476562 103.558594 270.457031 71.996094 252.136719 C 40.078125 233.742188 22.472656 209.050781 22.472656 182.714844 Z M 353.464844 182.714844 C 353.464844 131.117188 280.183594 89.179688 190.082031 89.179688 C 99.980469 89.179688 26.695312 131.117188 26.695312 182.714844 C 26.695312 234.316406 99.980469 276.253906 190.082031 276.253906 C 280.183594 276.253906 353.464844 234.316406 353.464844 182.714844 Z M 353.464844 182.714844 " fill-opacity="1" fill-rule="nonzero"/></g><g clip-path="url(#874e4049e5)"><g clip-path="url(#6b0174da71)"><g clip-path="url(#a474dde79c)"><path fill="#ffffff" d="M 101.976562 43.527344 C 124.769531 30.332031 154.957031 33.195312 186.929688 51.566406 C 218.535156 69.734375 248.222656 101.003906 270.5625 139.589844 C 292.902344 178.171875 305.246094 219.488281 305.269531 255.945312 C 305.285156 292.816406 292.738281 320.425781 269.949219 333.621094 C 247.15625 346.820312 216.96875 343.957031 184.996094 325.585938 C 153.386719 307.417969 123.703125 276.144531 101.363281 237.5625 C 79.019531 198.976562 66.675781 157.664062 66.71875 121.171875 C 66.640625 84.332031 79.183594 56.726562 101.976562 43.527344 Z M 267.832031 329.96875 C 312.488281 304.113281 312.058594 219.679688 266.910156 141.707031 C 221.761719 63.730469 148.746094 21.328125 104.09375 47.183594 C 59.4375 73.039062 59.867188 157.472656 105.015625 235.445312 C 150.164062 313.417969 223.179688 355.824219 267.832031 329.96875 Z M 267.832031 329.96875 " fill-opacity="1" fill-rule="nonzero"/></g></g></g><g clip-path="url(#b4333696f8)"><g clip-path="url(#e64c787148)"><g clip-path="url(#89e5a1ff99)"><path fill="#ffffff" d="M 272.785156 40.96875 C 295.640625 54.058594 308.316406 81.605469 308.472656 118.480469 C 308.625 154.933594 296.476562 196.304688 274.320312 234.996094 C 252.160156 273.6875 222.625 305.097656 191.101562 323.414062 C 159.21875 341.9375 129.042969 344.941406 106.1875 331.855469 C 83.335938 318.765625 70.660156 291.21875 70.5 254.34375 C 70.347656 217.886719 82.496094 176.515625 104.65625 137.828125 C 126.8125 99.136719 156.351562 67.722656 187.933594 49.441406 C 219.757812 30.886719 249.933594 27.878906 272.785156 40.96875 Z M 108.289062 328.191406 C 153.0625 353.835938 225.875 311.085938 270.65625 232.898438 C 315.433594 154.710938 315.460938 70.277344 270.6875 44.632812 C 225.910156 18.988281 153.097656 61.738281 108.320312 139.925781 C 63.539062 218.109375 63.511719 302.546875 108.289062 328.191406 Z M 108.289062 328.191406 " fill-opacity="1" fill-rule="nonzero"/></g></g></g><g fill="#ffffff" fill-opacity="1"><g transform="translate(151.542064, 222.844901)"><g><path d="M 46.28125 -22.4375 C 46.28125 -25.644531 45.390625 -28.191406 43.609375 -30.078125 C 41.835938 -31.972656 38.820312 -33.722656 34.5625 -35.328125 C 30.3125 -36.929688 26.640625 -38.519531 23.546875 -40.09375 C 20.460938 -41.675781 17.816406 -43.492188 15.609375 -45.546875 C 13.398438 -47.597656 11.679688 -50.007812 10.453125 -52.78125 C 9.222656 -55.5625 8.609375 -58.863281 8.609375 -62.6875 C 8.609375 -69.289062 10.71875 -74.703125 14.9375 -78.921875 C 19.15625 -83.140625 24.757812 -85.597656 31.75 -86.296875 L 31.75 -98.828125 L 41.125 -98.828125 L 41.125 -86.125 C 48.039062 -85.144531 53.453125 -82.257812 57.359375 -77.46875 C 61.265625 -72.6875 63.21875 -66.488281 63.21875 -58.875 L 46.28125 -58.875 C 46.28125 -63.5625 45.3125 -67.066406 43.375 -69.390625 C 41.445312 -71.710938 38.863281 -72.875 35.625 -72.875 C 32.414062 -72.875 29.929688 -71.96875 28.171875 -70.15625 C 26.421875 -68.34375 25.546875 -65.832031 25.546875 -62.625 C 25.546875 -59.65625 26.40625 -57.269531 28.125 -55.46875 C 29.84375 -53.675781 33.035156 -51.84375 37.703125 -49.96875 C 42.367188 -48.09375 46.203125 -46.328125 49.203125 -44.671875 C 52.210938 -43.015625 54.753906 -41.140625 56.828125 -39.046875 C 58.898438 -36.953125 60.484375 -34.566406 61.578125 -31.890625 C 62.671875 -29.222656 63.21875 -26.113281 63.21875 -22.5625 C 63.21875 -15.914062 61.144531 -10.519531 57 -6.375 C 52.863281 -2.238281 47.160156 0.195312 39.890625 0.9375 L 39.890625 12.59375 L 30.578125 12.59375 L 30.578125 1 C 22.578125 0.132812 16.378906 -2.707031 11.984375 -7.53125 C 7.585938 -12.351562 5.390625 -18.769531 5.390625 -26.78125 L 22.328125 -26.78125 C 22.328125 -22.125 23.425781 -18.554688 25.625 -16.078125 C 27.832031 -13.597656 31.007812 -12.359375 35.15625 -12.359375 C 38.59375 -12.359375 41.304688 -13.265625 43.296875 -15.078125 C 45.285156 -16.898438 46.28125 -19.351562 46.28125 -22.4375 Z M 46.28125 -22.4375 "/></g></g></g></svg>